<svg xmlns="http://www.w3.org/2000/svg" xmlns:xlink="http://www.w3.org/1999/xlink" width="101" height="16" viewBox="0 0 101 16">
  <defs>
    <clipPath id="clip-path">
      <rect id="crop" width="101" height="16" transform="translate(0.113)" fill="none"/>
    </clipPath>
  </defs>
  <g id="Vector_Smart_Object" data-name="Vector Smart Object" transform="translate(-0.113)" clip-path="url(#clip-path)">
    <path id="Контур_1" data-name="Контур 1" d="M42.187,13.643a3.954,3.954,0,0,1-2.673,1.081,3.091,3.091,0,0,1-2.393-.944,3.629,3.629,0,0,1-.862-2.535,4.426,4.426,0,0,1,1.448-3.371l.1-.091,4.477,5.777ZM37.13,2.977a2.174,2.174,0,0,1,.9-2.07,1.743,1.743,0,0,1,2,.161,2.38,2.38,0,0,1,.757,1.955,4.211,4.211,0,0,1-1.764,3.315l-.092.073-.079-.087a5.783,5.783,0,0,1-1.728-3.35M46.785,15a1.935,1.935,0,0,1-1.317-.511,7.544,7.544,0,0,1-1.211-1.532l-.046-.073.046-.073a7.485,7.485,0,0,0,.988-3.92,10.148,10.148,0,0,0-.059-1.049.349.349,0,0,1,.26-.4l1.136-.318V6.873l-.714.028H43.773l-.988-.028v.252l1.132.255a.72.72,0,0,1,.329.164.633.633,0,0,1,.165.381,8.467,8.467,0,0,1,.063,1.123,6.709,6.709,0,0,1-.658,3.032l-.086.175-4.447-5.49.145-.077C41.4,5.638,42.315,4.47,42.315,2.963a2.688,2.688,0,0,0-.839-2.2,3.442,3.442,0,0,0-2.3-.783,3.8,3.8,0,0,0-2.6.927,3.131,3.131,0,0,0-1.034,2.448,4.8,4.8,0,0,0,.293,1.647,9.722,9.722,0,0,0,1.363,2.217l.1.122-.132.077c-1.86,1.1-2.8,2.5-2.8,4.165A3.553,3.553,0,0,0,35.7,14.5a5.227,5.227,0,0,0,3.358,1.088,6,6,0,0,0,3.875-1.423l.1-.08.076.1a3.126,3.126,0,0,0,2.564,1.444,3.4,3.4,0,0,0,1.419-.322L47.006,15h-.23" transform="translate(14.881 -0.008)" fill="#99876a"/>
    <path id="Контур_2" data-name="Контур 2" d="M46.5,7.029c.115,2.018.132,2.605.132,4.368v3.847H44.211V.206h2.4S47.749,4.609,48,5.55s.438,1.749.553,2.389c-.076-1.469-.1-3.287-.1-4.8V.2h2.337V15.237H48.645s-1.317-4.641-1.58-5.56A22.791,22.791,0,0,1,46.5,7.033" transform="translate(19.039 0.084)" fill="#35614a"/>
    <path id="Контур_3" data-name="Контур 3" d="M56.874,7.806c0,6.48-1.027,7.812-3.424,7.812-2.225,0-3.424-1-3.424-7.812,0-6.6.932-7.774,3.424-7.774s3.424,1.175,3.424,7.774m-2.7,0c0-2.371,0-3.819-.1-4.9S53.832,1.6,53.451,1.6s-.589.217-.685,1.315-.056,2.546-.056,4.9c0,2.742-.02,3.8.056,4.854.1,1.154.247,1.273.685,1.273s.533-.1.629-1.273c.076-1.077.1-2.1.1-4.854" transform="translate(21.492 0.013)" fill="#35614a"/>
    <path id="Контур_4" data-name="Контур 4" d="M62.936,10.985c0,3.116-1.35,4.249-3.621,4.249H56.033V.2h3.292c2.528,0,3.193,1.567,3.193,4.13,0,1.843-.658,2.84-1.8,2.9,1.254,0,2.225,1.311,2.225,3.756M58.565,8.163v5.312h.658c.78,0,.988-.49.988-2.78,0-1.665-.188-2.525-1.027-2.525Zm0-6.207V6.289h.658c.685,0,.82-.626.82-1.916,0-1.749-.171-2.409-1.007-2.409Z" transform="translate(24.025 0.083)" fill="#35614a"/>
    <path id="Контур_5" data-name="Контур 5" d="M61.912.2V15.233h5.764V12.981h-3.1V.2Z" transform="translate(26.504 0.084)" fill="#35614a"/>
    <path id="Контур_6" data-name="Контур 6" d="M66.962.2V15.233H72.7V12.981H69.526V8.617h2.456V6.522H69.526V2.451H72.3V.2Z" transform="translate(28.634 0.084)" fill="#35614a"/>
    <path id="Контур_7" data-name="Контур 7" d="M6.906,10.982c0,3.116-1.35,4.252-3.621,4.252H0V.2H3.292c2.531,0,3.2,1.567,3.2,4.134,0,1.839-.658,2.84-1.807,2.9,1.254,0,2.225,1.311,2.225,3.763M2.531,8.163v5.309H3.19c.78,0,.988-.49.988-2.8,0-1.665-.191-2.525-1.027-2.525Zm0-6.211V6.282H3.19c.685,0,.816-.626.816-1.92,0-1.749-.171-2.409-1.007-2.409Z" transform="translate(0.394 0.083)" fill="#35614a"/>
    <path id="Контур_8" data-name="Контур 8" d="M16.419,7.516c1.646.507,1.827,2.5,1.827,4.319a16.786,16.786,0,0,0,.227,3.4H15.81A10.83,10.83,0,0,1,15.62,13V11.062c0-1.2-.4-2.1-1.228-2.322h-.181v6.494H11.577V.2h3.911c1.827,0,3.061,1.1,3.061,3.822,0,2.368-.988,3.389-2.13,3.5M14.211,2.05V6.46h.8c.685,0,.892-.451.892-1.86,0-2.2-.4-2.549-1.2-2.549Z" transform="translate(5.277 0.083)" fill="#35614a"/>
    <path id="Контур_9" data-name="Контур 9" d="M19.958,7.029c.115,2.018.132,2.605.132,4.368v3.847H17.674V.206h2.4S21.216,4.6,21.449,5.539s.438,1.749.553,2.389c-.076-1.469-.1-3.291-.1-4.8V.192h2.341V15.229h-2.14s-1.317-4.634-1.58-5.564a22.792,22.792,0,0,1-.569-2.644" transform="translate(7.848 0.081)" fill="#35614a"/>
    <path id="Контур_10" data-name="Контур 10" d="M23.719.192V15.236h5.744V12.984H26.287V8.613h2.452V6.518H26.287V2.444h2.778V.192Z" transform="translate(10.397 0.081)" fill="#35614a"/>
    <path id="Контур_11" data-name="Контур 11" d="M31.177,11.835c0,1.686.329,1.941.935,1.941.458,0,.81-.276.81-1.941,0-1.493-.968-2.56-2.064-3.917-.988-1.224-2.1-2.9-2.1-4.329,0-2.242.988-3.567,3.065-3.567s3.1,1.158,3.1,3.371a3.926,3.926,0,0,1-.191,1.217H32.576a7.163,7.163,0,0,0,.059-1.049c0-1.43-.151-1.86-.76-1.86s-.658.57-.658,1.647c0,1.357,1.057,2.448,1.9,3.55,1.241,1.644,2.242,2.948,2.242,4.48,0,2.448-.988,4.252-3.249,4.252-2,0-3.292-1.123-3.292-3.728a5.7,5.7,0,0,1,.138-1.64H31.3a10.631,10.631,0,0,0-.119,1.591" transform="translate(12.522 0.009)" fill="#35614a"/>
    <path id="Контур_12" data-name="Контур 12" d="M5.548,15.29,7.678.123h2.512L12.7,15.29H9.982l-.267-2.448H8.069L7.8,15.29Zm2.7-4.1H9.561s-.2-1.749-.329-2.878c-.076-.7-.329-2.9-.421-4.35-.036,1.486-.267,3.665-.329,4.35-.1,1.133-.27,2.878-.27,2.878" transform="translate(2.734 0.052)" fill="#35614a"/>
  </g>
</svg>
