<svg id="Сгруппировать_7338" data-name="Сгруппировать 7338" xmlns="http://www.w3.org/2000/svg" width="97.004" height="23.424" viewBox="0 0 97.004 23.424">
  <path id="Контур_6573" data-name="Контур 6573" d="M.942,10.272s2.414,9.89,2.8,11.5c.45,1.873,1.26,2.563,3.6,2.1l1.507-6.132c.382-1.523.638-2.609.884-4.158H9.77a40.719,40.719,0,0,0,.733,4.164s.614,2.783.928,4.246,1.192,2.383,3.479,1.881L18.5,10.273H15.6L14.375,16.15c-.329,1.71-.629,3.047-.859,4.612h-.041c-.21-1.549-.476-2.833-.811-4.5l-1.277-5.989H8.367L7,16.111c-.387,1.774-.748,3.207-.978,4.719H5.981c-.236-1.424-.55-3.224-.889-4.942,0,0-.811-4.176-1.1-5.615H.943Zm27.639,0V23.865h2.761V10.271H28.581Zm38.878,0V20.3a4.212,4.212,0,0,0,.816,2.943,3.058,3.058,0,0,0,2.247.853,6.562,6.562,0,0,0,2-.3l-.036-2.157a4.2,4.2,0,0,1-1.049.125c-.94,0-1.256-.6-1.256-1.844V16.087h2.4v-2.6h-2.4V10.272H67.459ZM22.412,13.422a7.911,7.911,0,0,0-3.82.911l.543,1.86a5.6,5.6,0,0,1,2.785-.783c1.7,0,1.973.959,1.973,1.576v.146c-3.695-.005-6.028,1.273-6.028,3.879A3.075,3.075,0,0,0,21.119,24.1a3.7,3.7,0,0,0,2.973-1.32h.062s.422,1.765,2.748,1.09A14.914,14.914,0,0,1,26.74,21.4V17.773c0-2.315-.988-4.35-4.328-4.35Zm16.512,0a3.213,3.213,0,0,0-2.974,1.618h-.041V13.653H33.275V23.865H36.05V17.876a2.387,2.387,0,0,1,.13-.836,1.879,1.879,0,0,1,1.687-1.309c1.12,0,1.644.947,1.644,2.313v5.82h2.772V17.8a2.833,2.833,0,0,1,.116-.828,1.75,1.75,0,0,1,1.665-1.244c1.135,0,1.68.93,1.68,2.538v5.6h2.774V17.851c0-3.172-1.611-4.428-3.429-4.428a3.7,3.7,0,0,0-2.015.554,4.3,4.3,0,0,0-1.293,1.272H41.74a2.915,2.915,0,0,0-2.815-1.826Zm15.239,0a7.917,7.917,0,0,0-3.82.911l.544,1.86a5.6,5.6,0,0,1,2.785-.783c1.694,0,1.972.959,1.972,1.576v.146c-3.694-.005-6.028,1.273-6.028,3.879A3.075,3.075,0,0,0,52.872,24.1a3.7,3.7,0,0,0,2.971-1.32h.062s.422,1.765,2.748,1.09a14.919,14.919,0,0,1-.161-2.461V17.773c0-2.315-.989-4.35-4.329-4.35Zm11.524,0a3.007,3.007,0,0,0-2.779,2.156h-.077V13.653h-2.5V23.865h2.848V18.636a3.87,3.87,0,0,1,.061-.753,2.15,2.15,0,0,1,2.251-1.8,5.284,5.284,0,0,1,.822.072V13.486a2.745,2.745,0,0,0-.628-.063Zm-41.7,5.521v1.274a1.806,1.806,0,0,1-1.932,1.858,1.26,1.26,0,0,1-1.371-1.351c0-1.4,1.544-1.791,3.3-1.781Zm31.751,0v1.274A1.806,1.806,0,0,1,53.8,22.075a1.26,1.26,0,0,1-1.371-1.351c0-1.4,1.544-1.791,3.3-1.781Z" transform="translate(-0.942 -5.356)" fill="#007dc6"/>
  <path id="Контур_6574" data-name="Контур 6574" d="M157.682.825c-.891,0-1.6.5-1.6,1.1l.541,6.128a1.184,1.184,0,0,0,2.118,0l.544-6.128c0-.606-.71-1.1-1.6-1.1ZM148.863,5.74a1.72,1.72,0,0,0-1.323.941c-.447.772-.368,1.634.156,1.937l5.577,2.6a1.007,1.007,0,0,0,1.1-.591h0a1,1,0,0,0-.036-1.245L149.3,5.847a.812.812,0,0,0-.432-.107Zm17.639,0a.814.814,0,0,0-.432.106L161.033,9.38A1,1,0,0,0,161,10.625h0a1.007,1.007,0,0,0,1.1.591l5.579-2.6c.525-.3.6-1.165.157-1.937A1.727,1.727,0,0,0,166.5,5.74Zm-13.021,8.086a.557.557,0,0,0-.208.035L147.7,16.455c-.523.3-.6,1.167-.155,1.939s1.231,1.136,1.755.834l5.037-3.53a1,1,0,0,0,.036-1.247h0a1.142,1.142,0,0,0-.89-.626Zm8.405,0a1.144,1.144,0,0,0-.89.626h0a1.007,1.007,0,0,0,.035,1.247l5.038,3.53c.522.3,1.309-.064,1.756-.834s.369-1.636-.157-1.939l-5.578-2.594a.556.556,0,0,0-.207-.035Zm-4.2,2.539a1,1,0,0,0-1.057.653l-.541,6.128c0,.607.708,1.1,1.6,1.1s1.6-.5,1.6-1.1l-.542-6.128a1,1,0,0,0-1.059-.653Z" transform="translate(-71.115 -0.825)" fill="#ffc220"/>
</svg>
