<svg id="Layer_1" data-name="Layer 1" xmlns="http://www.w3.org/2000/svg" viewBox="0 0 125.06 50"><defs><style>.cls-1{fill:#bebebe;}</style></defs><path class="cls-1" d="M10.41,18.41c0,5.36,1.05,7.89,4.25,7.89s4.44-2.64,4.44-8.43C19.1,12.57,18,10,14.8,10s-4.39,2.63-4.39,8.42M3.45,43c0,3.45,3.52,5.73,10.23,5.73,7.14,0,10.77-2,10.77-5.3,0-2.16-1.66-3.33-4.86-3.63-5.3-.5-10,.18-13.49-.87A4.6,4.6,0,0,0,3.45,43M27.1,18C27.1,23.1,23,26.6,15,27.52c-4.62.5-7.39,1-7.39,3.14s4.06,1.85,10.78,2c7.33.18,11.14,2.21,11.14,7.45,0,6-5.72,9.86-15.88,9.86C4.74,50,0,47.22,0,43.29a4.45,4.45,0,0,1,1.79-3.51,8.2,8.2,0,0,1,3-1.48A5.11,5.11,0,0,1,2.1,33.62c0-4.06,3.2-6.34,9.61-6.71-6.16-1.11-9.36-4.07-9.36-8.5,0-5,4.68-9.17,12.07-9.55C15,3.26,17.8,0,20.94,0a3.2,3.2,0,0,1,3.39,3.2A3.33,3.33,0,0,1,21,6.77c-1.18,0-2-.74-2.9-.74-1.54,0-2.27.87-2.46,2.9C22.79,9.3,27.1,13.05,27.1,18M38,23.27c0,8.87,2.15,13.24,6.77,13.24s6.83-4.37,6.83-13.24S49.27,10,44.72,10,38,14.42,38,23.27m22,0c0,8.37-6.22,14.47-15.21,14.47s-15.14-6-15.14-14.47S35.74,8.8,44.73,8.8s15.21,6.1,15.21,14.47m11.06,0c0,8.87,2.16,13.24,6.78,13.24s6.82-4.37,6.82-13.24S82.33,10,77.78,10,71,14.42,71,23.27m22,0c0,8.37-6.22,14.47-15.2,14.47s-15.15-6-15.15-14.47S68.78,8.8,77.78,8.8,93,14.9,93,23.27m16.85,12.94c4.19,0,7.39-4.25,7.39-12.07,0-7.27-3.45-11.58-7.27-11.58a7.39,7.39,0,0,0-5.11,2.34V28.14c0,5.29,1.36,8.06,5,8.06m-5,7.08c0,2.53.43,3.88,2,4.38,1.3.43,2.22.25,2.22,1,0,.43-.31.74-.86.74H94a.73.73,0,0,1-.8-.65.28.28,0,0,1,0-.09c0-.74.87-.55,1.91-1,1.67-.68,2.1-1.79,2.1-4.44v-25c0-2.65-.56-3.64-2.47-4.43-1-.44-1.78-.37-1.78-1,0-1.05,3.82-.8,11.89-3.82v4.19c3.63-2.9,6.65-4.38,9.86-4.38,5.91,0,10.34,4.93,10.34,12.44,0,9.55-6.46,16.26-15.82,16.26a16.53,16.53,0,0,1-4.37-.62v6.4Z"/></svg>