<svg id="Layer_1" data-name="Layer 1" xmlns="http://www.w3.org/2000/svg" viewBox="0 0 300 50"><defs><style>.cls-1{fill:#bebebe;}</style></defs><g id="svg_1" data-name="svg 1"><path id="svg_2" data-name="svg 2" class="cls-1" d="M262.32,9.69c0-2.9.9-3.9,2.4-3.9s2.7.6,4.1,3.9l8.5,19.3v12.2c0,2.9-1.2,3.7-4.5,4.1v.8h15.7v-.8c-3.4-.4-4.5-1.3-4.5-4.1V29l8.2-18.6c1.6-3.6,3.2-4.4,5.6-4.8v-.8h-11.5v.8c3.9.4,5.3,1.5,4.2,4.1l-7.2,16.5-7.4-16.9c-1-2.3-.4-3,3.9-3.6v-.8h-24.7v.8c3.9.6,5.1,1.3,5.1,4.1v22.6l-18.1-27.5h-8.9v.8c2.9.4,3.8,1.3,3.8,4.1v31.5c0,2.9-.8,3.9-1.8,3.9s-1.4-.4-2.7-3.9l-13.4-36.6h-.8l-12.9,35c-1.4,3.9-3.6,5.2-5.8,5.7v.8h11.8v-.8c-4.1-.4-5.4-2-4.5-4.6l2.9-8H222l2.8,7.5c1.2,3.4.5,4.4-3,5v.8h22.4v-.8c-3.9-.6-5.1-1.3-5.1-4.1V13L261,46.19h1.3V9.69Zm-157.9,15.7c0-12.8,6.1-19.5,13.2-19.5,4.2,0,6.9.9,8.5,2.6a15,15,0,0,1,3.1,5.6h.8V5.49a59.61,59.61,0,0,0-11.5-1.3c-10.7,0-21.8,6.9-21.8,21.2s11.1,21.2,21.1,21.2a41.37,41.37,0,0,0,12-1.8l1.2-8.1-.7-.2a21.42,21.42,0,0,1-3.2,4.5,13.64,13.64,0,0,1-9.6,4C110.72,44.89,104.42,38.39,104.42,25.39Zm88.7,1.2a21.2,21.2,0,0,1-3.3-.3v-20h3.3c5.5,0,7.9,2.9,7.9,10.1S198.52,26.59,193.12,26.59ZM64.62,4.79v9.9h.8c1.2-6.3,3.7-8.3,7.9-8.3h2v34.8c0,2.9-1.2,3.7-4.5,4.1v.8h15.7v-.8c-3.4-.4-4.5-1.3-4.5-4.1V6.29h2c4.2,0,6.7,2,7.9,8.3h.8V4.69H64.62Zm-12.5,41.8c6.8,0,14-3.9,14-11.9,0-4.7-2.5-8.6-6.9-11l-7.8-4.3c-4.1-2.3-5.3-4.4-5.3-7.4,0-3.4,2.5-6.1,7.2-6.1a7.43,7.43,0,0,1,5.4,1.9c1.2,1.2,2.4,3.2,3.5,6.8h.7V5.49a32.24,32.24,0,0,0-9.1-1.3c-6.7,0-11.7,4.2-11.7,11.3a12.79,12.79,0,0,0,6.6,11l7.2,4c4.1,2.3,5.4,4.5,5.4,7.8,0,3.9-4,6.7-8.4,6.7a9.65,9.65,0,0,1-7-2.7,13.85,13.85,0,0,1-3.1-5h4.7v-.8c-1.3-.3-2.1-.5-3.2-3.1l-9.2-21.9h-.8l-9,21.4c-1.2,2.9-2,3.4-3.4,3.6v.8h8v-.8c-2.9-.3-3.7-1.7-3-3.5l1.4-3.4h8.1l1.8,4.2c.8,1.9-.4,2.4-3.3,2.6v.8h6.4v7.9A42.66,42.66,0,0,0,52.12,46.59Zm101.6-.4,11.9-33.1.9,28.2c.1,2.8-1,3.6-4.4,4v.8h32.8v-.8c-3.9-.6-5.1-1.3-5.1-4.1V27.89a24.87,24.87,0,0,0,3.6.3c7.9,0,14.7-2.9,14.7-11.7s-6.8-11.7-14.7-11.7h-14.1v.8c2.9.4,3.8,1.3,3.8,4.1v31.5c0,2.9-1.2,4.1-4.5,4.1h-.1c-3.5,0-5-1.3-5.1-4l-1.2-31.5c-.1-2.9.9-3.8,4-4.2v-.8h-9.7l-10.6,29.7-10.6-29.7h-10.4v.8c3.1.4,4.1,1.4,4,4.2L137.82,40a5.08,5.08,0,0,1-4.6,5.3v.8h11v-.8c-2.8-.4-4.4-2.2-4.3-5.3l.9-27.5,12.1,33.6.8.1Zm-31.9-8.7c5.3,0,12.1-4.7,12.1-12.1s-6.7-12.1-12.1-12.1-12.1,4.7-12.1,12.1S116.42,37.49,121.82,37.49Zm0-22.5c3.4,0,5.7,2.8,5.7,10.4s-2.4,10.4-5.7,10.4-5.7-2.8-5.7-10.4S118.42,15,121.82,15Zm99.7,16.1h-11.1l5.5-15.2ZM35.92,28h-6.8l3.4-8.3Zm-13,2.1h.8V17.69h-.8c-1.3,4.4-2.6,5.4-5,5.4h-4.6V6.29h7.3c4.2,0,6.7,2,7.9,8.3h.8V4.69H2.82v.8c2.9.4,3.8,1.3,3.8,4.1v31.5c0,2.9-.9,3.7-3.8,4.1V46h15.6v-.8c-3.9-.6-5.1-1.3-5.1-4.1V24.59h4.6C20.22,24.69,21.62,25.69,22.92,30.09Z"/></g></svg>