<svg xmlns="http://www.w3.org/2000/svg" width="175.201" height="26.07" viewBox="0 0 175.201 26.07">
  <g id="Сгруппировать_255" data-name="Сгруппировать 255" transform="translate(0 0)">
    <path id="Контур_773" data-name="Контур 773" d="M-227.435,2787.618c0,3.523-.353,14.444-.353,14.444,0,2.114.7,3.052,2.7,3.052v.94h-7.868v-.94c2,0,3.053-.939,3.053-3.052l.7-17.849a2.652,2.652,0,0,0-2.7-2v-.823h5.988l6.341,16.675,6.459-16.675h5.4v.823a2.06,2.06,0,0,0-2.349,2.349l.7,17.261c0,2.584.47,3.288,2.583,3.288v.94h-9.042v-.94c1.762,0,2.584-.587,2.466-3.288,0,0-.352-12.095-.47-14.208l-4.345,11.978a44.879,44.879,0,0,0-1.644,5.167l-1.409.117c-.353-1.292-1.292-3.64-1.292-3.64s-3.641-10.216-4.932-13.622Z" transform="translate(310.691 -2780.572)" fill="#bebebe" fill-rule="evenodd"/>
    <path id="Контур_774" data-name="Контур 774" d="M-234.9,2806.17a5.709,5.709,0,0,0-1.41-.118c-.939,0-2.583.469-4.58.469-7.632,0-13.269-4.58-13.269-13.034,0-7.164,5.284-12.683,13.386-12.683a16.118,16.118,0,0,1,5.754,1.057c.352-.352.47-.587.821-.939h.7c-.118,1.292-.587,5.519-.587,5.519h-.7c-.471-2.465-1.763-4.11-5.872-4.11-4.933,0-9.395,3.875-9.395,11.038,0,8.1,4.58,11.625,9.629,11.625,3.289,0,5.285-1.878,6.576-4.227l.821.352-1.878,5.05Z" transform="translate(310.757 -2780.57)" fill="#bebebe" fill-rule="evenodd"/>
    <path id="Контур_775" data-name="Контур 775" d="M-257.158,2785.972h-.822c-.118-2.231-.822-2.936-2.583-2.936h-3.405v18.437c0,3.052.587,3.639,2.583,3.639v.94h-8.807v-.94c2,0,2.583-.587,2.583-3.757v-18.319h-3.405c-2.231,0-2.583.587-3.171,2.936h-.821l.587-5.284.587.117c.235.587.7.587,2.113.587h11.391c2.113,0,2.584,0,3.053-.7h.7l-.587,5.284Z" transform="translate(310.822 -2780.57)" fill="#bebebe" fill-rule="evenodd"/>
    <path id="Контур_776" data-name="Контур 776" d="M-282.1,2806.639a11.214,11.214,0,0,1-3.876-.587,6.74,6.74,0,0,1-2-.823,6.314,6.314,0,0,0-.822,1.057l-.7-.234.587-5.52.822.117c.47,2.584,2.231,4.462,5.872,4.462a4.761,4.761,0,0,0,4.7-4.932c0-2.113-.821-3.17-3.64-5.284a22.541,22.541,0,0,1-2.466-1.644c-2.583-1.644-4.227-3.523-4.227-6.575,0-3.523,2.935-5.872,6.811-5.872a8.839,8.839,0,0,1,4.109.939l.822-.939.587.118-.587,5.049-.822-.118c0-2.349-1.409-3.405-3.757-3.405-2.231,0-3.875,1.174-3.875,3.405,0,2,1.526,3.288,3.288,4.462.939.587,1.644,1.058,2.349,1.527,4.11,2.935,5.049,4.814,5.049,7.632,0,4.11-3.17,7.164-8.219,7.164Z" transform="translate(310.867 -2780.57)" fill="#bebebe" fill-rule="evenodd"/>
    <path id="Контур_777" data-name="Контур 777" d="M-295.551,2785.971h-.939c0-2.114-.94-2.936-2.819-2.936h-5.284v9.277h3.405c1.762,0,2.113-.939,2.349-2.467h.821v6.576h-.821c-.235-1.761-.587-2.466-2.466-2.466h-3.288v7.867c0,2.936.7,3.288,2.583,3.288v.94h-8.924v-.94c2.231,0,2.583-.587,2.583-3.288v-17.261c0-1.645-.7-2.349-2.583-2.349v-.823h12.213c2.113,0,2.583-.118,2.935-.822h.822l-.587,5.4Z" transform="translate(310.934 -2780.569)" fill="#bebebe" fill-rule="evenodd"/>
    <path id="Контур_778" data-name="Контур 778" d="M-168.481,2787.384v14.091c0,3.052.7,3.639,2.584,3.639v.94h-13.857v-.94c1.057,0,2-.352,2-1.057a8.662,8.662,0,0,0-.353-2.113l-1.057-3.406h-7.75c-.118.469-1.527,4.344-1.527,5.4,0,.94,1.058,1.174,1.762,1.174v.94h-6.458v-.94c1.174,0,2.113-.117,2.935-2.583l5.989-19.141a1.764,1.764,0,0,0-1.644-1.173v-.823h5.284l6.341,20.081c.587,2.113,1.174,3.17,2.114,3.639,1.409-.469,1.76-.939,1.76-3.639v-16.909c-1.057-1.41-1.173-2.349-3.17-2.349v-.823h5.989l9.863,16.792v-12.8c0-2.584-.587-3.17-2.583-3.17v-.823h13.152v.823c-.822,0-1.527.352-1.527,1.173a6.262,6.262,0,0,0,.471,1.879l3.757,8.1,3.641-7.867a4.278,4.278,0,0,0,.7-2.231c0-.7-.47-1.057-1.526-1.057v-.823h6.224v.823c-1.526,0-2.466,1.409-3.17,3.052l-4.815,9.864v6.458c0,2.819.7,3.523,2.584,3.523v.94h-8.925v-.94c1.879,0,2.584-.7,2.584-3.523v-5.519l-5.167-10.921c-.94-2.114-1.292-2.583-1.879-2.935-1.174.469-1.526,1.291-1.526,3.17v18.084s.117,1.409.234,3.053l-1.526.118-11.508-19.258Zm-14.678-1.176-3.288,10.687h6.811l-3.523-10.687Z" transform="translate(310.568 -2780.572)" fill="#bebebe" fill-rule="evenodd"/>
    <path id="Контур_779" data-name="Контур 779" d="M-197.759,2796.895h-1.762v5.049c0,2.583.7,3.17,2.7,3.17v.94h-9.042v-.94c1.879,0,2.583-.7,2.583-3.288v-16.557c0-2.583-.7-3.052-2.583-3.052v-.823h6.811c6.575,0,10.451,2,10.451,7.4,0,5.636-4.7,8.1-9.159,8.1Zm-1.174-13.857h-.587v12.1h1.057c3.875,0,5.871-1.762,5.871-6.224s-1.76-5.872-6.34-5.872Z" transform="translate(310.607 -2780.572)" fill="#bebebe" fill-rule="evenodd"/>
    <path id="Контур_780" data-name="Контур 780" d="M-238.867,2801.371c-4.463,0-7.516-3.171-7.516-7.75a7.475,7.475,0,0,1,7.516-7.751c4.227,0,7.4,3.288,7.4,7.751a7.524,7.524,0,0,1-7.4,7.75Zm0-14.091c-3.053,0-4.11,2.936-4.11,6.341,0,3.17.939,6.341,4.11,6.341,3.052,0,3.993-3.171,3.993-6.459,0-3.171-1.174-6.224-3.993-6.224Z" transform="translate(310.733 -2780.586)" fill="#bebebe" fill-rule="evenodd"/>
    <path id="Контур_781" data-name="Контур 781" d="M-290.7,2799.96v-.823c1.173,0,1.409-.353,1.409-.7a3.473,3.473,0,0,0-.235-1.175s-.234-.939-.47-1.644h-4.58l-.47,1.526a3.475,3.475,0,0,0-.234,1.174c0,.469.47.823,1.174.823v.823h-4.58v-.823c1.174,0,1.644-.353,2.113-1.644l3.523-10.569a1.076,1.076,0,0,0-1.174-.822v-.822h3.757c3.053,8.925,3.875,11.273,3.875,11.273.587,2,1.174,2.584,2.114,2.584v.823Zm-1.645-11.391-1.76,5.754h3.64l-1.879-5.754Z" transform="translate(310.896 -2780.584)" fill="#bebebe" fill-rule="evenodd"/>
  </g>
</svg>
