<svg id="Сгруппировать_7331" data-name="Сгруппировать 7331" xmlns="http://www.w3.org/2000/svg" width="82.586" height="24.888" viewBox="0 0 82.586 24.888">
  <g id="Сгруппировать_7328" data-name="Сгруппировать 7328" transform="translate(11.619 15.017)">
    <path id="Контур_6565" data-name="Контур 6565" d="M320.567,322.907c-4.8,3.541-11.755,5.424-17.745,5.424a32.114,32.114,0,0,1-21.677-8.269c-.449-.406-.049-.96.491-.646a43.634,43.634,0,0,0,21.69,5.755,43.15,43.15,0,0,0,16.544-3.385C320.68,321.442,321.361,322.32,320.567,322.907Z" transform="translate(-280.95 -318.461)" fill="#f90" fill-rule="evenodd"/>
    <path id="Контур_6566" data-name="Контур 6566" d="M425.023,318.143c-.614-.786-4.057-.372-5.6-.187-.468.056-.541-.353-.119-.65,2.747-1.929,7.247-1.372,7.77-.726s-.138,5.164-2.712,7.317c-.4.331-.773.154-.6-.283C424.341,322.168,425.638,318.93,425.023,318.143Z" transform="translate(-383.41 -315.977)" fill="#f90" fill-rule="evenodd"/>
  </g>
  <g id="Сгруппировать_7329" data-name="Сгруппировать 7329">
    <path id="Контур_6567" data-name="Контур 6567" d="M419.606,261.532v-1.875a.463.463,0,0,1,.475-.474h8.4a.468.468,0,0,1,.484.473v1.608a2.636,2.636,0,0,1-.632,1.18l-4.352,6.214a9.324,9.324,0,0,1,4.792,1.029.858.858,0,0,1,.446.731v2c0,.275-.3.595-.619.428a9.676,9.676,0,0,0-8.877.017c-.292.155-.6-.159-.6-.435v-1.9a2.261,2.261,0,0,1,.313-1.288L424.482,262h-4.39A.467.467,0,0,1,419.606,261.532Z" transform="translate(-371.869 -258.814)" fill-rule="evenodd"/>
    <path id="Контур_6568" data-name="Контур 6568" d="M293.492,272.545h-2.556a.482.482,0,0,1-.457-.432l0-13.119a.481.481,0,0,1,.493-.472h2.38a.481.481,0,0,1,.465.441v1.713h.048a3.372,3.372,0,0,1,3.364-2.43c1.6,0,2.6.773,3.316,2.43a3.775,3.775,0,0,1,6.49-.994c.811,1.1.645,2.705.645,4.113l0,8.279a.482.482,0,0,1-.493.472h-2.553a.479.479,0,0,1-.459-.471v-6.955a16.776,16.776,0,0,0-.072-2.456,1.332,1.332,0,0,0-1.5-1.133,1.7,1.7,0,0,0-1.528,1.077,7.943,7.943,0,0,0-.239,2.512v6.954a.482.482,0,0,1-.493.472h-2.553a.48.48,0,0,1-.459-.471l0-6.955c0-1.463.239-3.616-1.574-3.616-1.837,0-1.766,2.1-1.766,3.616v6.954A.482.482,0,0,1,293.492,272.545Z" transform="translate(-276.402 -258.118)" fill-rule="evenodd"/>
    <path id="Контур_6569" data-name="Контур 6569" d="M468.779,258.245c3.794,0,5.845,3.258,5.845,7.4,0,4-2.266,7.178-5.845,7.178-3.722,0-5.75-3.258-5.75-7.316C463.029,261.42,465.081,258.245,468.779,258.245Zm.023,2.678c-1.885,0-2,2.567-2,4.168s-.023,5.024,1.981,5.024c1.981,0,2.076-2.761,2.076-4.444a12.13,12.13,0,0,0-.382-3.479A1.6,1.6,0,0,0,468.8,260.923Z" transform="translate(-404.447 -258.118)" fill-rule="evenodd"/>
    <path id="Контур_6570" data-name="Контур 6570" d="M518.4,272.545h-2.547a.48.48,0,0,1-.459-.471l0-13.123a.484.484,0,0,1,.491-.428h2.371a.486.486,0,0,1,.454.367V260.9h.048c.716-1.795,1.718-2.65,3.483-2.65a3.351,3.351,0,0,1,2.983,1.546c.668,1.049.668,2.815.668,4.086v8.255a.485.485,0,0,1-.49.413h-2.562a.482.482,0,0,1-.455-.413v-7.123c0-1.436.167-3.534-1.6-3.534a1.673,1.673,0,0,0-1.48,1.049,5.835,5.835,0,0,0-.406,2.485v7.064A.489.489,0,0,1,518.4,272.545Z" transform="translate(-443.306 -258.118)" fill-rule="evenodd"/>
    <path id="Контур_6571" data-name="Контур 6571" d="M373.347,265.916a5.012,5.012,0,0,1-.479,2.712,2.077,2.077,0,0,1-1.769,1.162c-.98,0-1.554-.747-1.554-1.854,0-2.177,1.953-2.573,3.8-2.573Zm2.576,6.232a.528.528,0,0,1-.6.059,6.242,6.242,0,0,1-1.465-1.7,5.066,5.066,0,0,1-4.214,1.858,3.628,3.628,0,0,1-3.826-3.984,4.342,4.342,0,0,1,2.726-4.178,17.682,17.682,0,0,1,4.806-.886v-.332a3.272,3.272,0,0,0-.311-1.853,1.708,1.708,0,0,0-1.435-.664A1.946,1.946,0,0,0,369.547,262a.541.541,0,0,1-.444.47l-2.478-.268a.451.451,0,0,1-.382-.535c.57-3.006,3.284-3.913,5.716-3.913a5.794,5.794,0,0,1,3.85,1.273c1.244,1.162,1.124,2.711,1.124,4.4v3.982a3.489,3.489,0,0,0,.965,2.369.482.482,0,0,1-.008.68c-.522.438-1.45,1.243-1.96,1.7Z" transform="translate(-332.307 -257.754)" fill-rule="evenodd"/>
    <path id="Контур_6572" data-name="Контур 6572" d="M243.434,265.916a5.015,5.015,0,0,1-.478,2.712,2.077,2.077,0,0,1-1.769,1.162c-.98,0-1.554-.747-1.554-1.854,0-2.177,1.953-2.573,3.8-2.573Zm2.577,6.232a.529.529,0,0,1-.6.059,6.219,6.219,0,0,1-1.465-1.7,5.067,5.067,0,0,1-4.214,1.858,3.628,3.628,0,0,1-3.826-3.984,4.341,4.341,0,0,1,2.726-4.178,17.682,17.682,0,0,1,4.806-.886v-.332a3.273,3.273,0,0,0-.31-1.853,1.709,1.709,0,0,0-1.435-.664A1.946,1.946,0,0,0,239.634,262a.541.541,0,0,1-.444.47l-2.477-.268a.45.45,0,0,1-.382-.535c.569-3.006,3.283-3.913,5.716-3.913a5.8,5.8,0,0,1,3.85,1.273c1.243,1.162,1.124,2.711,1.124,4.4v3.982a3.489,3.489,0,0,0,.964,2.369.483.483,0,0,1-.008.68c-.522.438-1.45,1.243-1.96,1.7Z" transform="translate(-235.902 -257.754)" fill-rule="evenodd"/>
  </g>
</svg>
