<svg xmlns="http://www.w3.org/2000/svg" width="60.727" height="23.763" viewBox="0 0 60.727 23.763">
  <g id="Vector_Smart_Object" data-name="Vector Smart Object" transform="translate(0 0)">
    <g id="Сгруппировать_2" data-name="Сгруппировать 2">
      <g id="Сгруппировать_1" data-name="Сгруппировать 1" transform="translate(0.074 21.061)">
        <path id="Контур_13" data-name="Контур 13" d="M28.9,42.192h1.328a.953.953,0,0,1,.707.234.571.571,0,0,1,.166.42v.008a.6.6,0,0,1-.4.579.63.63,0,0,1,.514.635v.007c0,.445-.362.717-.98.717H28.9Zm1.151,1.036c.218,0,.34-.074.34-.227v-.007c0-.141-.111-.223-.325-.223H29.6v.457Zm.1.984c.218,0,.344-.085.344-.238v-.008c0-.141-.111-.234-.351-.234H29.6v.479Z" transform="translate(-28.904 -42.14)" fill="#00428b"/>
        <path id="Контур_14" data-name="Контур 14" d="M30.839,43.511V43.5a1.4,1.4,0,0,1,2.789-.008V43.5a1.4,1.4,0,0,1-2.789.007Zm2.057,0V43.5a.675.675,0,0,0-.666-.7.661.661,0,0,0-.655.694V43.5a.673.673,0,0,0,.662.7A.662.662,0,0,0,32.9,43.511Z" transform="translate(-28.284 -42.152)" fill="#00428b"/>
        <path id="Контур_15" data-name="Контур 15" d="M33.167,43.511V43.5a1.4,1.4,0,0,1,2.789-.008V43.5a1.4,1.4,0,0,1-2.789.007Zm2.057,0V43.5a.674.674,0,0,0-.666-.7.661.661,0,0,0-.654.694V43.5a.673.673,0,0,0,.662.7A.662.662,0,0,0,35.224,43.511Z" transform="translate(-27.539 -42.152)" fill="#00428b"/>
        <path id="Контур_16" data-name="Контур 16" d="M35.562,42.192h.718v1.054l.892-1.054h.851l-.98,1.117,1.014,1.481h-.862l-.651-.965-.263.294v.672h-.718Z" transform="translate(-26.772 -42.14)" fill="#00428b"/>
        <path id="Контур_17" data-name="Контур 17" d="M37.43,44.415l.4-.479a1.331,1.331,0,0,0,.84.312c.192,0,.3-.067.3-.178v-.007c0-.108-.085-.167-.436-.249-.551-.126-.977-.282-.977-.817v-.008c0-.482.381-.831,1-.831a1.626,1.626,0,0,1,1.065.345l-.359.508a1.3,1.3,0,0,0-.725-.256c-.174,0-.259.074-.259.167v.008c0,.119.089.171.448.252.6.13.965.323.965.809V44c0,.531-.418.846-1.047.846A1.805,1.805,0,0,1,37.43,44.415Z" transform="translate(-26.174 -42.15)" fill="#00428b"/>
        <path id="Контур_18" data-name="Контур 18" d="M40.233,43.326v-.008a.625.625,0,0,1,1.25,0v.008a.625.625,0,0,1-1.25,0Z" transform="translate(-25.276 -41.979)" fill="#00428b"/>
        <path id="Контур_19" data-name="Контур 19" d="M43.024,42.822h-.777v-.631h2.271v.631h-.777V44.79h-.718Z" transform="translate(-24.632 -42.14)" fill="#00428b"/>
        <path id="Контур_20" data-name="Контур 20" d="M44.054,43.511V43.5a1.4,1.4,0,0,1,2.789-.008V43.5a1.4,1.4,0,0,1-2.789.007Zm2.057,0V43.5a.675.675,0,0,0-.666-.7.661.661,0,0,0-.655.694V43.5a.673.673,0,0,0,.662.7A.662.662,0,0,0,46.111,43.511Z" transform="translate(-24.053 -42.152)" fill="#00428b"/>
        <path id="Контур_21" data-name="Контур 21" d="M47.071,43.817l-.984-1.626H46.9l.533.947.537-.947h.8l-.984,1.615v.984h-.721Z" transform="translate(-23.402 -42.14)" fill="#00428b"/>
        <path id="Контур_22" data-name="Контур 22" d="M48.046,44.415l.4-.479a1.33,1.33,0,0,0,.84.312c.192,0,.3-.067.3-.178v-.007c0-.108-.085-.167-.437-.249-.551-.126-.976-.282-.976-.817v-.008c0-.482.381-.831,1-.831a1.625,1.625,0,0,1,1.065.345l-.359.508a1.3,1.3,0,0,0-.725-.256c-.174,0-.259.074-.259.167v.008c0,.119.089.171.448.252.6.13.965.323.965.809V44c0,.531-.418.846-1.047.846A1.806,1.806,0,0,1,48.046,44.415Z" transform="translate(-22.775 -42.15)" fill="#00428b"/>
        <path id="Контур_23" data-name="Контур 23" d="M50.85,43.326v-.008a.625.625,0,0,1,1.25,0v.008a.625.625,0,0,1-1.25,0Z" transform="translate(-21.878 -41.979)" fill="#00428b"/>
        <path id="Контур_24" data-name="Контур 24" d="M53.64,42.822h-.777v-.631h2.272v.631h-.777V44.79H53.64Z" transform="translate(-21.233 -42.14)" fill="#00428b"/>
        <path id="Контур_25" data-name="Контур 25" d="M54.821,42.192H56.9V42.8H55.531V43.2h1.243v.568H55.531v.412h1.391v.613h-2.1Z" transform="translate(-20.606 -42.14)" fill="#00428b"/>
        <path id="Контур_26" data-name="Контур 26" d="M56.608,43.511V43.5a1.332,1.332,0,0,1,1.365-1.351,1.267,1.267,0,0,1,1.1.542l-.54.419a.693.693,0,0,0-.566-.3.642.642,0,0,0-.618.687V43.5a.642.642,0,0,0,.618.694.706.706,0,0,0,.584-.315l.54.386a1.362,1.362,0,0,1-2.482-.757Z" transform="translate(-20.034 -42.152)" fill="#00428b"/>
        <path id="Контур_27" data-name="Контур 27" d="M58.72,42.192h.718v.972h.921v-.972h.718v2.6h-.718V43.8h-.921v.987H58.72Z" transform="translate(-19.358 -42.14)" fill="#00428b"/>
        <path id="Контур_28" data-name="Контур 28" d="M61.68,43.326v-.008a.625.625,0,0,1,1.251,0v.008a.625.625,0,0,1-1.251,0Z" transform="translate(-18.41 -41.979)" fill="#00428b"/>
        <path id="Контур_29" data-name="Контур 29" d="M63.8,42.192h.758L65.18,43.2l.618-1.006h.758v2.6h-.714V43.3l-.662,1.017h-.015l-.659-1.01V44.79h-.7Z" transform="translate(-17.73 -42.14)" fill="#00428b"/>
        <path id="Контур_30" data-name="Контур 30" d="M66.167,43.511V43.5a1.4,1.4,0,0,1,2.789-.008V43.5a1.4,1.4,0,0,1-2.789.007Zm2.057,0V43.5a.675.675,0,0,0-.666-.7.661.661,0,0,0-.655.694V43.5a.674.674,0,0,0,.662.7A.662.662,0,0,0,68.224,43.511Z" transform="translate(-16.973 -42.152)" fill="#00428b"/>
        <path id="Контур_31" data-name="Контур 31" d="M68.562,42.192h1.224a1.128,1.128,0,0,1,.843.282.807.807,0,0,1,.229.605v.007a.822.822,0,0,1-.533.8l.618.906h-.829L69.594,44H69.28v.787h-.718Zm1.191,1.247c.244,0,.385-.119.385-.308v-.007c0-.2-.148-.308-.389-.308h-.47v.624Z" transform="translate(-16.207 -42.14)" fill="#00428b"/>
        <path id="Контур_32" data-name="Контур 32" d="M70.576,42.192h2.083V42.8H71.286V43.2h1.243v.568H71.286v.412h1.391v.613h-2.1Z" transform="translate(-15.562 -42.14)" fill="#00428b"/>
      </g>
      <rect id="Прямоугольник_1" data-name="Прямоугольник 1" width="57.188" height="1.734" transform="translate(0 17.485)" fill="#00428b"/>
      <path id="Контур_33" data-name="Контур 33" d="M85.033,40.455a1.579,1.579,0,1,1-1.578-1.585,1.583,1.583,0,0,1,1.578,1.585m-42.647-12.4c-1.22-1.744-3.6-1.86-4.985-1.86H29.107V41.757H37.7c1,0,4.155,0,5.278-2.056a4.206,4.206,0,0,0-.019-3.737A4.068,4.068,0,0,0,40.3,33.93a3.384,3.384,0,0,0,2.581-2.394,4.29,4.29,0,0,0-.492-3.477m-7.978,4.07V29.6h1.516c.986,0,1.594.339,1.594,1.267,0,1.028-.608,1.264-1.594,1.264Zm0,6.269V35.867h1.734c.984,0,1.6.336,1.6,1.262,0,1.03-.612,1.269-1.6,1.269Zm14.365,3.358.856-1.876h5.587l.856,1.876h5.722L52.665,26.211h-.486L43.05,41.756Zm3.639-8.046,1.345,2.927H51.091ZM84.54,37.838l1.769-11.622-5.72-.008,1.736,11.63Zm3.749-11.62a1.182,1.182,0,1,0,0,2.364,1.182,1.182,0,1,0,.008-2.364Zm0,.237a.909.909,0,0,1,.9.941.9.9,0,0,1-.9.943.943.943,0,0,1-.014-1.884ZM88.1,27.541h.129c.151,0,.223.058.244.187a.953.953,0,0,0,.092.28h.294a.776.776,0,0,1-.086-.287c-.036-.159-.1-.254-.215-.289v-.015a.3.3,0,0,0,.243-.28.316.316,0,0,0-.114-.25.651.651,0,0,0-.407-.094,2.289,2.289,0,0,0-.451.043v1.171H88.1Zm.008-.532a.7.7,0,0,1,.15-.013c.172,0,.25.071.25.177,0,.124-.121.175-.273.175h-.127ZM74.265,36.131l.291,5.626H79.6l-.464-15.543h-.387l-7.62,6.031-7.594-6.031h-.387l-.465,15.543h5.043l.291-5.626,3.111,2.532Z" transform="translate(-28.765 -26.199)" fill="#00428b"/>
    </g>
  </g>
</svg>
