<svg id="Layer_1" data-name="Layer 1" xmlns="http://www.w3.org/2000/svg" viewBox="0 0 195.47 50"><defs><style>.cls-1{fill:#bebebe;}</style></defs><g id="layer1"><g id="g3846"><g id="g3863"><path id="path3064" class="cls-1" d="M57,.22C45.62.3,36.3,13,36.3,24c0,11.63,6.83,25.8,20.71,25.76S78.09,34.45,78.09,24C78.09,12.47,68.4.14,57,.22Zm0,.43C66.54.65,69.12,11.18,69.12,24,69.12,40.93,66,49.27,57,49.26S45.08,42.41,45.08,24C45.08,12.48,47.47.65,57,.65Z"/><path id="path3060" class="cls-1" d="M81.86,24.32C81.8,11.75,91.86.62,100.38.07c3.07-.22,7,1.19,9.33,2.19,1.68.73,5.1-.33,5.71-2.26h.33V17.12h-.33c0-.73-3.17-16.62-15-16.62-8.77,0-9.62,15.41-9.62,23.82s.26,25,10.49,25c5,0,8.62-2.16,9.58-6.55V29.46h-4.17v-.57h16.13v.57h-4V49h-.32a3.85,3.85,0,0,0-3.93-2.8c-4.19,0-8.15,3.65-13,3.61-12.75-.12-19.68-12.89-19.73-25.45Z"/><path id="path3058" class="cls-1" d="M5,1.9H0V1.34H17.59V1.9H13.18L25.75,36c3.93-12.1,7-21,11.07-34.14H32.45V1.34h9.29V1.9H37.51L22.24,49.52Z"/><path id="path3054" class="cls-1" d="M125.25,37.86l-.08-36h-4.78V1.31H138v.54h-4.77l.1,39.49c1.06,4.52,2.94,7.95,9.36,8a12.39,12.39,0,0,0,12.42-9.06V1.85h-5.47V1.33h44.75l.09,17.28h-.43C193.22,7.45,188.91,3.23,181.38,2c-2.59-.42-5.31-.11-8.75-.13V23.93c3,.23,6.18,0,8.33-1.8,2-1.68,2.51-5.56,2.65-7.13H184V34.21h-.41c-.12,0-.27-4.82-2.62-7.11a9.11,9.11,0,0,0-8.33-2.32V48.35c4.2,0,7.54.36,10.44-.44C191.89,45.49,195,38.05,195,30.58h.49V48.91h-35.1v-.56h4V1.85h-8.57V40.28c-1,3.68-4.53,9.76-13.63,9.72-8.46,0-16.86-3.85-16.88-12.14Z"/></g></g></g></svg>