<svg id="Layer_1" data-name="Layer 1" xmlns="http://www.w3.org/2000/svg" viewBox="0 0 293.27 41.18"><defs><style>.cls-1{fill:#bebebe;}</style></defs><path class="cls-1" d="M8.39,22.81V11.75L5.06,13.23a11,11,0,0,0-.7,4.66,11.39,11.39,0,0,0,2.25,5.8l1.78-.88M18.13,0a5.76,5.76,0,0,1,3.08,1.32,4,4,0,0,1,.9,3.9A4,4,0,0,1,20.18,8a5.17,5.17,0,0,1-2.81.79V14.1L20,16.2l-2.6,2.09v7.26a11.78,11.78,0,0,0,4.21-4.82s.07-.18.22-.53a9.71,9.71,0,0,1-.95,5A9.38,9.38,0,0,1,17,29.62,10.48,10.48,0,0,1,9.11,31a11.13,11.13,0,0,1-7.33-5.06A12.17,12.17,0,0,1,0,19.08C.1,14.17,3.76,9.93,8,8.35A4.18,4.18,0,0,1,9.43,8l-1.2.84a8.8,8.8,0,0,0-3,4L13.4,9.18V20.64L6.79,24a8.63,8.63,0,0,0,5,2.84,7.84,7.84,0,0,0,5.28-1.08V18.29L14.49,16.2l2.58-2.09V8.77A33.34,33.34,0,0,1,13,7.89C11.49,7.53,6.59,6.16,5.82,6a2.88,2.88,0,0,0-2.29.44,2.26,2.26,0,0,0-.69,2.25,2.63,2.63,0,0,0,.7,1,2.34,2.34,0,0,1-.8-.33A3.75,3.75,0,0,1,1,6.42,4.92,4.92,0,0,1,3.09,2,6.19,6.19,0,0,1,7.43.93c2.41.34,5.65,1.71,8.54,2.4a3.57,3.57,0,0,0,2.77-.1,1.36,1.36,0,0,0,.49-1.85c-.62-1.06-1.8-1-2.8-1.22A4.31,4.31,0,0,1,18.13,0Z"/><path class="cls-1" d="M50,19.92l-3.72,2.73V13.58L50,19.92m-.11-8.71-4.2,2.53c-1.68,1-4,2.1-4,2.1V26.4l-1.51,1.21.2.23,1.48-1.18,4.61,4.17,8-6.36-.19-.23-4.44,3.48-3.64-3.41V23l7.32-5.39Z"/><path class="cls-1" d="M28.87,34.8A7.45,7.45,0,0,0,34,34.08a7.12,7.12,0,0,0,3.72-6.58l.1-3.83V15.31l1.59-1.22-.19-.23L37.68,15l-3.6-4-4.62,4V1.51L23.68,6a1.48,1.48,0,0,1,1.1,1.46V26.33l-2.44,1.82.17.25,1.18-.88L27,30.57l5.17-4.11L32,26.22l-1.21,1-1.29-1.28V15.38L31,14.1l2.25,2.79s0,6.82,0,9.08c0,2.41,0,5.42-1.29,6.87a4.91,4.91,0,0,1-3.07,2"/><path class="cls-1" d="M64.79,33.84c-2.06-.23-2.93-1.49-2.91-2.47a2.26,2.26,0,0,1,1.85-2.05A4.09,4.09,0,0,1,67.35,31l4.78-5.28-.23-.2L70.62,27a8.38,8.38,0,0,0-5-2.69V8.2L78,30.79s.12.26.63.26.33-.35.33-.35V8a5.58,5.58,0,0,0,3.29-1.36c2.39-2.45,1.42-5.13,1.15-5.39a2.57,2.57,0,0,1-2.54,2.35A4.37,4.37,0,0,1,77.72,2.1L72.94,7.54l.23.21,1.37-1.56A5.85,5.85,0,0,0,78.69,8v13.2L69.48,4.43a4.76,4.76,0,0,0-4.09-2.61,4.31,4.31,0,0,0-4.11,3.74A5.25,5.25,0,0,0,61.3,8S61.64,5.79,63,5.81s1.84,1.13,2.33,2v4.84c-1.25.09-4.51.23-4.71,3.62a4,4,0,0,0,1.46,3,3,3,0,0,0,1.56.56,1.49,1.49,0,0,1-.74-1.67c.29-1,2.36-1.15,2.43-.74v6.83c-1,0-4.18.1-5.62,2.83a4.58,4.58,0,0,0,.11,4.8,4.79,4.79,0,0,0,5,2"/><path class="cls-1" d="M91.1,19.92l-3.72,2.73V13.58l3.72,6.34M91,11.21l-4.2,2.53c-1.69,1-4,2.1-4,2.1V26.4l-1.51,1.21.2.23L83,26.66l4.62,4.17,8-6.36-.19-.23L91,27.72l-3.64-3.41V23l7.32-5.39Z"/><path class="cls-1" d="M102.21,30.91l-3.93-3.27-1.73,1.25-.18-.24,1.76-1.29V18.22c.09-3.76-3.45-2.82-3.25-6.82.08-1.75,1.78-3.08,2.64-3.52a4.76,4.76,0,0,1,1.91-.46s-1.61,1-1.22,2.45c.6,2.23,4.41,2.43,4.49,5.41V25.64l2.81,2.26.74-.58V16.1l-1.51-1.51,3.91-3.46,3.57,3.16-1.36,1.48v10l3.34,2.76.6-.38v-12l-1.53-1.43,3.92-3.58,3.67,3,1.46-1.3.2.23L119.22,16v9.76l-8.42,5.2-4.31-3.41-4.28,3.39"/><path class="cls-1" d="M274.71,19.92,271,22.65V13.58l3.72,6.34m-.11-8.71-4.19,2.53c-1.69,1-4,2.1-4,2.1V26.4l-1.51,1.21.2.23,1.48-1.18,4.61,4.17,8-6.36-.19-.23-4.44,3.48L271,24.31V23l7.32-5.39Z"/><polyline class="cls-1" points="236.94 15.63 237.13 15.85 238.65 14.55 240.89 17.09 240.89 25.81 239.8 26.81 243.29 30.76 246.88 27.22 245.41 25.7 245.41 15.15 246.3 14.44 248.78 17.33 248.78 26.03 247.85 26.96 251.14 30.66 254.66 27.14 253.36 25.78 253.33 15.19 254.28 14.42 256.87 17.27 256.87 25.91 256.01 26.76 259.65 30.73 264.53 26.22 264.32 26 263.14 27.09 261.32 25.07 261.32 15.2 263.07 13.87 262.89 13.63 261.13 14.96 257.81 11.24 253.07 14.99 249.74 11.37 245.16 14.96 241.81 11.39 236.94 15.63"/><polyline class="cls-1" points="227 15.35 227.2 15.58 228.48 14.48 230.48 16.84 230.48 26.81 229.07 28.04 229.26 28.27 230.74 27.01 233.96 30.73 238.62 26.57 238.42 26.34 237.05 27.55 235.13 25.33 235.13 15.58 236.75 14.18 236.55 13.95 235.01 15.28 231.62 11.32 227 15.35"/><polyline class="cls-1" points="228.35 7.1 231.85 3.89 234.7 7.05 231.18 10.25 228.35 7.1"/><path class="cls-1" d="M213.9,22.81V11.75l-3.33,1.48a11,11,0,0,0-.7,4.66,11.48,11.48,0,0,0,2.24,5.8l1.79-.88M223.63,0a5.73,5.73,0,0,1,3.08,1.32,4,4,0,0,1,.91,3.9A4,4,0,0,1,225.68,8a5.14,5.14,0,0,1-2.8.79V14.1l2.59,2.1-2.59,2.09v7.26a11.78,11.78,0,0,0,4.21-4.82s.07-.18.22-.53a9.71,9.71,0,0,1-.95,5,9.4,9.4,0,0,1-3.89,4.39A10.47,10.47,0,0,1,214.61,31a11.09,11.09,0,0,1-7.32-5.06,12.09,12.09,0,0,1-1.78-6.83c.1-4.91,3.76-9.15,8-10.73A4.12,4.12,0,0,1,214.94,8c-.34.23-.73.52-1.21.84a8.94,8.94,0,0,0-3,4l8.19-3.66V20.64L212.3,24a8.6,8.6,0,0,0,5,2.84,7.86,7.86,0,0,0,5.28-1.08V18.29L220,16.2l2.58-2.09V8.77a33.94,33.94,0,0,1-4.12-.88C217,7.53,212.09,6.16,211.32,6a2.9,2.9,0,0,0-2.29.44,2.28,2.28,0,0,0-.68,2.25,2.43,2.43,0,0,0,.7,1,2.26,2.26,0,0,1-.8-.33,3.7,3.7,0,0,1-1.71-3A4.92,4.92,0,0,1,208.6,2,6.18,6.18,0,0,1,212.93.93c2.41.34,5.66,1.71,8.55,2.4a3.57,3.57,0,0,0,2.77-.1,1.35,1.35,0,0,0,.48-1.85c-.61-1.06-1.79-1-2.79-1.22A4.27,4.27,0,0,1,223.63,0Z"/><path class="cls-1" d="M285.05,13.25v5.24L286.79,20s3.79-3,5.17-5.84c0,0-1.71,2.31-4,1.6a5.46,5.46,0,0,1-2.91-2.52m-4.24,13.89s1.66-2.74,4.51-2.15A5.46,5.46,0,0,1,289,28.45V21.8l-1.91-1.66C285,22.24,281.28,25.29,280.81,27.14Zm2.72,5a3.47,3.47,0,0,1-3.4-2.8c-.53-2.33,1.09-3.91,3.53-6.39l-2.89-2.65v-5s2.13-1.06,3.79-2.1S287.93,11,287.93,11s1.24,1.57,2.64,1.44a2,2,0,0,0,2-2.33c.38.67,1.38,2.66-2.48,7.11l3.15,2.54v6.55a62.71,62.71,0,0,0-7.11,4.42s-1.93-2.41-3.6-1.26C281.43,30.29,281.94,31.6,283.53,32.19Z"/><path class="cls-1" d="M157.18,24.74l4.06,3.68V17.17l-4.06-3.75V24.74m8.37-9.18,1.41-1.3.21.23-1.38,1.28V26.19s-2.62,1.38-4.45,2.41-3.78,2.25-3.78,2.25l-4.8-4.05-1.27,1.1-.21-.23,1.34-1.16V15.31h0s2.26-1,4.17-2.1l3.63-2.08Z"/><path class="cls-1" d="M175,14.51l3.06-3.12a4.42,4.42,0,0,0,.81.56,2.17,2.17,0,0,0,2,.12,3.73,3.73,0,0,0,1-.79,4.91,4.91,0,0,1-2.51,4.83c-.6.29-2.33.85-4.15-1.37V26l1.93,1.71,1.62-1.34.18.24-5,4.21-3.84-3.49-1.38,1.3-.23-.24,2.11-1.9V16.76L169,14.62l-1.39,1.23-.2-.22,4.89-4.4L175,14.51"/><path class="cls-1" d="M187.86,19.18,193.5,11a4.35,4.35,0,0,0,2,1.22c1.77.46,3.31-1.24,3.31-1.24-.3,2.2-1.41,4.69-3.71,5.07a5.6,5.6,0,0,1-3.91-1.24l-.36.57,7.83,11.83,1.57-1.37.2.22-5.38,4.7-7.23-11.55"/><path class="cls-1" d="M183.2,8.22c0-1.77-.73-2.86-1.67-2.79l6.15-4.32V25.58h0l1.63,1.71,1.23-1.06.19.23-5,4.33-3.36-3.16-1.34,1.18-.22-.22,2.35-2.05V8.22"/><path class="cls-1" d="M143.68,15.1a2.52,2.52,0,0,1-1.75.77,2.58,2.58,0,0,1-1.77-.78v3.36a2.42,2.42,0,0,1,3.52,0V15.1m0-7.18-2.37-2.09-1.15.91v7.85a2.51,2.51,0,0,0,1.78.9,2.4,2.4,0,0,0,1.74-.86Zm-3.52,22.26a3,3,0,0,0,2.48-.48,2.86,2.86,0,0,0,1-2.3V18.92a2.39,2.39,0,0,0-1.74-.87,2.51,2.51,0,0,0-1.78.9ZM131.75,7.82c0-1.66-.68-2.58-1.76-2.6-1.57,0-1.94,2.17-1.94,2.17a4.15,4.15,0,0,1,1.14-3.25,4.58,4.58,0,0,1,4.63-1.51,3.89,3.89,0,0,1,3.09,4.11V29.5s.91.11,1.54.25,1.41.34,1.41.34V2.64h.3v3.7l4.94-4,3.62,3.22,1.69-1.46.2.23-1.77,1.52V27c-.09,1.38-.31,2.79-1.61,3.6-2.91,1.72-6.42-.27-9.55-.72-2.32-.35-6-.79-6.87,1.34a2,2,0,0,0,.77,2.49c2.11,1.41,11.52-2.37,14.74-.87,2.94,1.37,2.93,3.53,2.48,5-.77,2.8-4.29,3.28-4.29,3.28a2.49,2.49,0,0,0,1.23-2.66c-.25-.83-.82-1.07-2.66-.86-4,.45-8.85,2.41-12.09,1.05a5,5,0,0,1-2.73-4.83c.08-3,3.49-4.11,3.49-4.11V18.86c-.09-.44-1.91-.32-2.31.48-.6,1.21.75,1.77.75,1.77a2.42,2.42,0,0,1-2.06-.92,3.43,3.43,0,0,1-.17-4.11c1-1.41,2.25-1.66,3.8-1.83Z"/></svg>