<svg id="Layer_1" data-name="Layer 1" xmlns="http://www.w3.org/2000/svg" viewBox="0 0 209.56 43.01"><defs><style>.cls-1{fill:#bebebe;}</style></defs><g id="WH_Logo" data-name="WH Logo"><path id="Pfad_1" data-name="Pfad 1" class="cls-1" d="M20.94,42.44,24.71,5c.14-2,.56-2.24,1.26-2.24h.42V.7H20.24V2.79h.42c.84,0,1.26.56,1.12,2.24L19.55,27.36,17,5c-.28-1.82.14-2.24,1.12-2.24h.14V.7H9.77V2.79h.42c.84,0,.84.28,1,2.24l.7,5.72L9.77,28.9,7.54,5c-.28-2,.14-2.24,1-2.24h.14V.7H0V2.79H.42c1,0,1,.28,1.12,2.24L5.45,42.44H11l2.23-19.26,2.1,19.26ZM57,17.87c0-2.65,0-3.49,1.68-3.49,1.11,0,1.11.42,1.11,2.65V39.37c0,.84-.28,1-.7,1h-.28v2.09h8.52V40.35h-.42c-.56,0-.7-.28-.7-1.12V15.78c0-3.91-.84-5.31-4.61-5.31a4.47,4.47,0,0,0-4.74,3.07c-.42-2.09-1.54-3.07-4.47-3.07-2.37,0-3.63.7-4.61,3.07V10.47l-7.4.56v2.09h.28c.42,0,.84.42.84,1.54V39.09c0,1-.28,1.26-.84,1.26h-.28v2.09h8.24V40.35H48.3c-.42,0-.56-.14-.56-.84V17.87c0-2.65,0-3.49,1.54-3.49,1.12,0,1.12.42,1.12,2.65V39.37c0,.84-.28,1-.7,1h-.42v2.09h8.37V40.35h-.14c-.55,0-.83-.28-.83-1.12V17.87Zm58.92,24.57h10.33V40.35h-.7c-.84,0-1.12-.42-1.12-2.24V21.92h5.45V38c0,1.82-.28,2.24-1.12,2.24h-.84V42.3h10.19V40.21h-.83c-.84,0-1.12-.42-1.12-2.24V5c0-2,.14-2.24,1.12-2.24h.83V.7H127.88V2.79h.84c.84,0,1.12.28,1.12,2.24V19.55h-5.59V5c0-2,.28-2.24,1.26-2.24h.7V.7H115.88V2.79h.83c.84,0,1.12.28,1.12,2.24V39.09c0,.84-.28,1.12-1.12,1.12h-.83Zm75.8,0h8.11V40.35h-.29c-.56,0-.56-.14-.56-.84V17.87c0-2.65,0-3.49,1.68-3.49,1.25,0,1.25.42,1.25,2.65V39.37c0,.84-.28,1-.55,1h-.42v2.09h8.66V40.35h-.42c-.56,0-.7-.28-.7-1.12V15.78c0-3.91-1-5.31-4.75-5.31-2.51,0-3.91.7-4.89,3.07V0L191,.7V2.79h.83c.56,0,.84.28.84,1.54V39.09c0,1-.14,1.26-.84,1.26h-.28v2.09Zm-159.57.42c6.84,0,7.82-5.72,7.82-16.19s-1-16.2-7.82-16.2-7.82,5.58-7.82,16.2C24.29,37.14,25.27,42.86,32.11,42.86Zm50.82-.42h8.24V40.35h-.42c-.42,0-.42-.14-.42-.84V17.87c0-2.65,0-3.49,1.67-3.49,1.12,0,1.26.42,1.26,2.65V39.37c0,.84-.28,1-.7,1h-.42v2.09h8.66V40.35h-.28c-.56,0-.7-.28-.7-1.12V15.78c0-3.91-.84-5.31-4.75-5.31-2.37,0-3.9.7-4.74,3.07V10.47l-8,.56v2.09h.84c.42,0,.83.42.83,1.54V39.09c0,1-.27,1.26-.83,1.26h-.28v2.09Zm74.55.56c2.79,0,3.91-1.4,4.47-3.07.56,2.51,1.12,3.07,4.33,3.07,3.77,0,4.19-2.23,4.19-6.56h-1.82c0,3.21,0,3.49-.7,3.49s-.56-.28-.56-2.1V17c0-4.18-1.4-6.42-6.28-6.42-3.91,0-7.68,1.12-7.54,5.45.14,2,.84,3.91,2.93,3.77,1.82-.14,2.66-1.12,2.66-2.66a5.53,5.53,0,0,0-2.1-3.77,5.07,5.07,0,0,1,2.52-.41c1.4,0,1.67,1.11,1.67,3.07v5.86c-7.12,2.37-8.52,3.35-8.52,12.29,0,6.28,1.68,8.8,4.75,8.8Zm-12.14,0c5.3,0,6.56-1.54,6.28-10.33h-2.24c0,7-.28,7.4-2.65,7.4-2.93,0-2.93-1.26-2.93-13.12V26h8.51c0-12-1.4-15.36-7-15.36-5.16,0-7.81,3.21-7.81,16.34,0,12.56,2.09,16.05,7.81,16.05Zm-69.81-.14c5.17,0,6.56-1.54,6.42-10.33H79.72c0,7-.28,7.4-2.79,7.4-3.21,0-2.94-1.26-2.94-13.12v-1h8.24c0-12-1.12-15.36-6.7-15.36-5.16,0-7.82,3.21-7.82,16.34,0,12.7,2.1,16.05,7.82,16.05Zm95.35-.42h8.52V40.35h-.7c-.56,0-.7-.28-.7-1.12V0l-8,.7V2.79h.84c.56,0,.7.28.7,1.12V39.37c0,.84,0,1-.42,1h-.42v2.09Zm-61.14.42c3.9,0,5.86-2.51,5.86-6.42,0-9.08-8.1-14.24-8.1-20.66,0-2,.7-2.52,2.09-2.52,2.1,0,2.38.84,2.66,3.91l.28,2.93h2.37V10.75h-1.82c-.14,1.12-.41,1.54-.41,1.4a5.5,5.5,0,0,0-4.33-1.68c-3.35,0-6.42,1.54-6.42,6.57,0,8,8.1,14,8.1,20,0,2.65-.56,3.07-2.52,3.07s-2.37-.84-2.65-4.75l-.14-2.65H102.2v9.77h2.09c.14-1.11.56-1.81.84-1.4.7.7,1.54,1.82,4.61,1.82Zm71.06-7c0,5,.7,7,5.72,7,3.49,0,4.33-1.4,4.33-5.3V32.25h-2.09v5.58c0,1.82-.14,2.1-.84,2.1s-.84-.28-.84-1.82v-25H191V10.75h-3.91v-8h-2.23c-1.54,7.12-2.93,8-5,8h-.56v2.37h1.4V35.88ZM32.11,40.07c-1.54,0-1.54-.84-1.54-13.4s0-13.54,1.54-13.54,1.4.83,1.4,13.4S33.51,40.07,32.11,40.07Zm69.11-27.92c5.3-3.91,6.42-7,4.6-9.64C105,1,102.75,0,101.22,1.4c-2,1.54-1.4,4.33,2.09,6-.7.7-2.09,2.23-3.35,3.35ZM160.13,39c-1.25,0-1.25-1.4-1.25-5.58,0-7.68,0-8.66,2.51-10V36.44C161.39,38.53,161.11,39,160.13,39ZM74,23.45c.14-9.91.28-10.47,1.68-10.47s1.25.56,1.25,10.47Zm69.81,0c.14-9.91.28-10.47,1.67-10.47s1.12.56,1.12,10.47Z"/></g></svg>